<?xml version="1.0" encoding="utf-8"?>
<svg viewBox="139.998 70 420 420" width="420px" height="420px" xmlns="http://www.w3.org/2000/svg">
  <path d="m513.33 280c0 90.207-73.125 163.33-163.33 163.33s-163.33-73.125-163.33-163.33 73.125-163.33 163.33-163.33 163.33 73.125 163.33 163.33zm46.668 0c0 115.98-94.02 210-210 210s-210-94.02-210-210 94.02-210 210-210 210 94.02 210 210zm-186.67-93.332c0 12.887-10.445 23.332-23.332 23.332s-23.332-10.445-23.332-23.332 10.445-23.336 23.332-23.336 23.332 10.449 23.332 23.336zm-23.332 46.664c12.887 0 23.332 10.449 23.332 23.336v116.66c0 12.887-10.445 23.336-23.332 23.336s-23.332-10.449-23.332-23.336v-116.66c0-12.887 10.445-23.336 23.332-23.336z" fill-rule="evenodd"/>
</svg>